<?xml version="1.0" standalone="no"?>
<!DOCTYPE svg PUBLIC "-//W3C//DTD SVG 20010904//EN"
 "http://www.w3.org/TR/2001/REC-SVG-20010904/DTD/svg10.dtd">
<svg version="1.0" xmlns="http://www.w3.org/2000/svg"
 width="533.000000pt" height="533.000000pt" viewBox="0 0 533.000000 533.000000"
 preserveAspectRatio="xMidYMid meet">
<metadata>
Created by potrace 1.14, written by Peter Selinger 2001-2017
</metadata>
<g transform="translate(0.000000,533.000000) scale(0.100000,-0.100000)"
fill="#000000" stroke="none">
<path d="M4188 4935 c-2 -2 -25 -6 -53 -10 -71 -9 -179 -47 -260 -92 -59 -33
-148 -116 -635 -600 -311 -308 -568 -564 -571 -568 -4 -3 -153 138 -330 315
-397 395 -415 411 -496 456 -333 187 -758 91 -977 -220 -99 -140 -131 -248
-130 -441 0 -127 2 -147 27 -219 31 -87 82 -184 122 -231 15 -16 276 -281 581
-587 305 -306 554 -561 554 -565 0 -4 -148 -156 -329 -338 -352 -353 -354
-355 -337 -436 15 -75 92 -127 169 -113 46 7 65 25 461 421 l255 255 107 -106
107 -107 -338 -336 c-186 -184 -359 -349 -384 -365 -169 -107 -403 -77 -550
69 -117 118 -160 287 -111 444 29 96 61 138 260 339 100 102 189 199 196 217
54 127 -75 247 -202 187 -47 -23 -422 -408 -463 -477 -124 -209 -145 -460 -57
-676 50 -122 157 -259 261 -331 201 -139 468 -173 694 -90 135 51 179 87 544
449 191 190 352 348 358 349 5 2 119 -106 253 -240 499 -497 510 -507 674
-564 411 -141 854 100 968 527 29 110 21 323 -16 414 -4 11 -16 40 -26 65 -38
95 -105 178 -299 373 -108 109 -208 202 -221 208 -88 33 -184 -17 -201 -104
-17 -82 -14 -86 202 -307 242 -246 272 -294 279 -444 15 -308 -268 -536 -566
-455 -104 28 -134 52 -488 405 l-345 344 105 105 106 106 327 -326 c201 -200
341 -332 362 -341 115 -48 234 70 192 191 -7 18 -138 158 -333 355 -178 179
-323 330 -323 335 0 6 348 359 773 785 848 851 821 819 883 1005 24 71 27 96
27 220 1 147 -11 203 -66 324 -95 205 -309 371 -533 412 -54 10 -201 20 -207
14z m199 -321 c279 -93 397 -406 247 -661 -14 -25 -447 -466 -998 -1018 l-972
-975 -776 778 c-474 475 -785 794 -801 822 -140 247 -20 558 250 649 108 36
223 29 328 -20 77 -36 59 -20 520 -478 215 -214 400 -393 412 -400 28 -14 91
-16 123 -3 14 5 300 283 635 617 336 334 633 622 660 640 110 70 252 89 372
49z"/>
<path d="M4210 4333 c-17 -3 -269 -248 -785 -764 l-760 -759 -556 555 c-363
362 -565 556 -583 561 -15 3 -48 4 -73 1 -57 -6 -111 -55 -120 -109 -14 -91
-40 -61 627 -728 340 -341 630 -624 645 -630 36 -14 95 -12 124 4 13 7 333
322 710 699 902 901 949 949 957 981 28 113 -66 209 -186 189z"/>
</g>
</svg>
